<?xml version="1.0" encoding="UTF-8" standalone="no"?>
<svg
   width="1183.7975"
   height="193.33493"
   viewBox="0 0 1183.7975 193.33493"
   version="1.1"
   xml:space="preserve"
   style="clip-rule:evenodd;fill-rule:evenodd;stroke-linejoin:round;stroke-miterlimit:2"
   id="svg143"
   sodipodi:docname="Logo_white_colourfulC.svg"
   inkscape:version="1.1.1 (c3084ef, 2021-09-22)"
   xmlns:inkscape="http://www.inkscape.org/namespaces/inkscape"
   xmlns:sodipodi="http://sodipodi.sourceforge.net/DTD/sodipodi-0.dtd"
   xmlns="http://www.w3.org/2000/svg"
   xmlns:svg="http://www.w3.org/2000/svg"><defs
   id="defs147" /><sodipodi:namedview
   id="namedview145"
   pagecolor="#ffffff"
   bordercolor="#666666"
   borderopacity="1.0"
   inkscape:pageshadow="2"
   inkscape:pageopacity="0.0"
   inkscape:pagecheckerboard="true"
   showgrid="false"
   inkscape:zoom="0.1146018"
   inkscape:cx="724.24694"
   inkscape:cy="1758.2622"
   inkscape:window-width="1312"
   inkscape:window-height="847"
   inkscape:window-x="0"
   inkscape:window-y="25"
   inkscape:window-maximized="0"
   inkscape:current-layer="svg143"
   fit-margin-top="0"
   fit-margin-left="0"
   fit-margin-right="0"
   fit-margin-bottom="0" />
    <text
   x="-264.98569"
   y="191.75673"
   style="font-weight:500;font-size:200px;font-family:Montserrat-Medium, Montserrat;letter-spacing:-10px;fill:#ffffff;stroke-width:0.656733"
   id="text99"><tspan
   x="-8.3999996"
   y="191.75673"
   id="tspan97"
   style="stroke-width:0.656733"><tspan
   style="letter-spacing:-15px"
   id="tspan20261">en</tspan>v</tspan>i</text><g
   transform="matrix(0.65673201,0,0,0.6567339,-6958.7723,-686.56777)"
   id="g107">
                    <text
   x="11420.8"
   y="1336.5"
   style="font-weight:500;font-size:304.538px;font-family:Montserrat-Medium, Montserrat;letter-spacing:-22.8403px;word-spacing:-15.2269px;fill:#ffffff"
   id="text105"
   dx="-10 0 -10">onn<tspan
   style="letter-spacing:-15.2269px"
   id="tspan23319">e</tspan><tspan
   id="tspan23327"
   style="letter-spacing:-7.61344px">ct</tspan></text>
                </g><g
   transform="matrix(0.30312885,0,0,0.30312972,-5515.4386,-71.605302)"
   id="g136">
                    <path
   d="m 20000.3,358.473 c -60.4,-77.17 -153,-122.253 -251,-122.253 -176,0 -318.9,142.894 -318.9,318.898 0,176.005 142.9,318.898 318.9,318.898 84.6,0 165.7,-33.598 225.5,-93.403 l -78.9,-78.849 c -38.9,38.893 -91.6,60.742 -146.6,60.742 -114.5,0 -207.4,-92.927 -207.4,-207.388 0,-114.461 92.9,-207.388 207.4,-207.388 63.7,0 123.9,29.318 163.3,79.504 z"
   style="fill:none"
   id="path109" />
                    <clipPath
   id="_clip1">
                        <path
   d="m 20000.3,358.473 c -60.4,-77.17 -153,-122.253 -251,-122.253 -176,0 -318.9,142.894 -318.9,318.898 0,176.005 142.9,318.898 318.9,318.898 84.6,0 165.7,-33.598 225.5,-93.403 l -78.9,-78.849 c -38.9,38.893 -91.6,60.742 -146.6,60.742 -114.5,0 -207.4,-92.927 -207.4,-207.388 0,-114.461 92.9,-207.388 207.4,-207.388 63.7,0 123.9,29.318 163.3,79.504 z"
   id="path111" />
                    </clipPath>
                    <g
   clip-path="url(#_clip1)"
   id="g134">
                        <g
   transform="matrix(1.03846,0,0,1.03846,-52.8455,-46.0575)"
   id="g116">
                            <path
   d="m 18765,624.407 c 20.3,135.6 128.1,241.303 264.1,259.016 l 13.9,-106.894 c -88.3,-11.495 -158.2,-80.093 -171.4,-168.093 z"
   style="fill:#38325b"
   id="path114" />
                        </g>
                        <g
   transform="matrix(1.03846,0,0,1.03846,-52.8455,-46.0575)"
   id="g120">
                            <path
   d="m 18993.7,281.119 c -136.4,34.36 -232.1,157.073 -232.1,297.791 0,15.257 1.2,30.493 3.4,45.582 l 106.7,-16.005 c -1.5,-9.79 -2.2,-19.677 -2.2,-29.577 0,-91.31 62,-170.937 150.6,-193.233 z"
   style="fill:#1aa9ae"
   id="path118" />
                        </g>
                        <g
   transform="matrix(1.03846,0,0,1.03846,-52.8455,-46.0575)"
   id="g124">
                            <path
   d="m 19311.3,390.554 c -58.2,-74.907 -147.7,-118.731 -242.6,-118.731 -25.5,0 -51,3.192 -75.8,9.502 l 26.6,104.521 c 16.1,-4.093 32.6,-6.164 49.2,-6.164 61.6,0 119.6,28.431 157.4,77.029 z"
   style="fill:#e4737a"
   id="path122" />
                        </g>
                        <g
   transform="matrix(1.03846,0,0,1.03846,-52.8455,-46.0575)"
   id="g128">
                            <path
   d="m 18935.3,855.512 c 41.6,20.064 87.2,30.484 133.4,30.484 81.5,0 159.6,-32.353 217.2,-89.943 l -76.3,-76.289 c -37.4,37.357 -88,58.344 -140.9,58.344 -29.9,0 -59.5,-6.759 -86.5,-19.774 z"
   style="fill:#d71d5a"
   id="path126" />
                        </g>
                        <g
   transform="matrix(3.44196,0,0,3.44196,-25914.1,-11112.2)"
   id="g132">
                            <path
   d="m 13321.6,3347.12 c -13.2,-16.94 -33.4,-26.86 -54.9,-26.86 -38.3,0 -69.5,31.14 -69.5,69.48 0,38.35 31.2,69.48 69.5,69.48 18.4,0 36.1,-7.32 49.1,-20.35 l -6.6,-6.67 c -11.3,11.26 -26.6,17.58 -42.5,17.58 -33.1,0 -60,-26.9 -60,-60.04 0,-33.13 26.9,-60.04 60,-60.04 18.6,0 36.1,8.57 47.4,23.21 z"
   style="fill:#ffffff;fill-opacity:0.5"
   id="path130" />
                        </g>
                    </g>
                </g>
</svg>
